# xmcd
#
# Track frame offsets: 
#        150
#        16269
#        34555
#        53294
#        66648
#        84154
#        98442
#        118053
#        132046
#        147050
#
# Disc length: 2167 seconds
#
# Revision: 0
# Processed by: cddbd v1.5.2PL0 Copyright (c) Steve Scherf et al.
# Submitted via: ExactAudioCopyFreeDBPlugin 1.0
#
DISCID=7108750a
DTITLE=Zumba Fitness - Mega Mix 39
DYEAR=2014
DGENRE=Dance
TTITLE0=Salome and DJ Jovane - Viva la VIda (Warmup)
TTITLE1=Vamo a POrtarnos Mal (Merengue)
TTITLE2=C'est la Vie a.k.a. Vivir Mi Vida (Salsa)
TTITLE3=No Naci Pa Perder (Reggaeton)
TTITLE4=El Baile del Gavilan (CUmbia)
TTITLE5=Mi Mi Mi (Electronica)
TTITLE6=Sonu Nigam and Sunidhi Chauhan - Suite Tera Laat Rang Da (Hindi 
TTITLE6=Pop)
TTITLE7=My Song's Know What You Did in the Dark (Emo)
TTITLE8=Kenny Williams - El Cheke Cheke (Tropipop)
TTITLE9=Darte un Deso (Bachata)
EXTD=
EXTT0=
EXTT1=
EXTT2=
EXTT3=
EXTT4=
EXTT5=
EXTT6=
EXTT7=
EXTT8=
EXTT9=
PLAYORDER=
